<svg width="49" height="46" viewBox="0 0 49 46" fill="none" xmlns="http://www.w3.org/2000/svg">
<path fill-rule="evenodd" clip-rule="evenodd" d="M33.949 4.62633V8.75981H48.7876L42.9852 2.90515L33.949 4.62633Z" fill="#00730C"/>
<path fill-rule="evenodd" clip-rule="evenodd" d="M26.1256 1.19697V13.2777C26.1163 13.5584 26.2851 13.8145 26.5467 13.9166C26.7917 14.026 27.079 13.9673 27.2612 13.7705L31.3412 9.54186V4.15173L27.3486 0.79281C27.2059 0.626713 27.0015 0.526322 26.7828 0.515015C26.7017 0.515167 26.6215 0.531517 26.5467 0.5633C26.287 0.664761 26.1186 0.918262 26.1256 1.19697Z" fill="#00730C"/>
<path fill-rule="evenodd" clip-rule="evenodd" d="M19.6059 11.3676C17.4455 11.3676 15.6941 13.119 15.6941 15.2793V17.8872C15.6941 18.6074 16.278 19.1911 16.998 19.1911C17.7181 19.1911 18.3018 18.6074 18.3018 17.8872V15.2793C18.3018 14.5592 18.8857 13.9755 19.6057 13.9755C20.3259 13.9755 20.9096 13.3917 20.9096 12.6716C20.9096 11.9514 20.326 11.3676 19.6059 11.3676Z" fill="#00730C"/>
<path fill-rule="evenodd" clip-rule="evenodd" d="M19.6059 6.15198C14.5677 6.1584 10.4849 10.2411 10.4785 15.2794V17.8873C10.4785 18.6074 11.0622 19.1911 11.7824 19.1911C12.5025 19.1911 13.0863 18.6074 13.0863 17.8873V15.2794C13.0905 11.6806 16.0069 8.76415 19.6059 8.75972C20.3261 8.75972 20.9098 8.17601 20.9098 7.45585C20.9098 6.73568 20.3261 6.15198 19.6059 6.15198Z" fill="#00730C"/>
<path fill-rule="evenodd" clip-rule="evenodd" d="M19.6059 0.936279C11.6882 0.9456 5.27202 7.36182 5.2627 15.2795V17.8872C5.2627 18.6074 5.84656 19.1911 6.56656 19.1911C7.28657 19.1911 7.87044 18.6074 7.87044 17.8872V15.2793C7.87762 8.80107 13.1275 3.5512 19.6057 3.54402C20.3259 3.54402 20.9096 2.96016 20.9096 2.24015C20.9097 1.51999 20.326 0.936279 19.6059 0.936279Z" fill="#00730C"/>
<path fill-rule="evenodd" clip-rule="evenodd" d="M44.3803 43.9657C44.3803 43.2455 43.7966 42.6618 43.0764 42.6618H23.5176V39.2063C23.7742 38.8829 24.0485 38.5739 24.3391 38.2805C24.6141 37.9859 24.9057 37.7072 25.2127 37.446H32.645C37.6836 37.4402 41.7668 33.3572 41.7724 28.3186V23.2463C39.3648 24.857 36.5326 25.7149 33.6359 25.7107C29.1616 25.7137 25.3276 28.9115 24.5215 33.3126L24.2477 34.8511C23.5198 35.4208 22.8395 36.0487 22.2136 36.7288C21.5877 36.0487 20.9074 35.4208 20.1795 34.8511L19.9057 33.3126C19.0996 28.9114 15.2656 25.7137 10.7912 25.7107C7.89455 25.7149 5.06234 24.857 2.65477 23.2463V28.3186C2.66058 33.3572 6.74363 37.4404 11.7822 37.446H19.2145C19.8312 37.9807 20.3986 38.5699 20.9096 39.2063V42.6617H1.35075C0.630584 42.6617 0.046875 43.2455 0.046875 43.9655C0.046875 44.6856 0.630736 45.2696 1.3509 45.2696H43.0764C43.7966 45.2696 44.3803 44.6859 44.3803 43.9657Z" fill="#00730C"/>
</svg>
